<mxfile host="app.diagrams.net" modified="2023-12-14T08:31:46.024Z" agent="Mozilla/5.0 (Macintosh; Intel Mac OS X 10_15_7) AppleWebKit/537.36 (KHTML, like Gecko) Chrome/120.0.0.0 Safari/537.36" etag="9lxEOz7soVzXVO3RFva3" version="22.1.8" type="github">
  <diagram name="Page-1" id="fR07Yc3DnHccIEHacm1G">
    <mxGraphModel dx="714" dy="800" grid="1" gridSize="10" guides="1" tooltips="1" connect="1" arrows="1" fold="1" page="1" pageScale="1" pageWidth="850" pageHeight="1100" math="0" shadow="0">
      <root>
        <mxCell id="0" />
        <mxCell id="1" parent="0" />
        <mxCell id="vVfArK2lWGgnMiUkdLZK-12" style="edgeStyle=orthogonalEdgeStyle;rounded=0;orthogonalLoop=1;jettySize=auto;html=1;entryX=0;entryY=0.5;entryDx=0;entryDy=0;" parent="1" source="vVfArK2lWGgnMiUkdLZK-3" target="vVfArK2lWGgnMiUkdLZK-5" edge="1">
          <mxGeometry relative="1" as="geometry" />
        </mxCell>
        <mxCell id="vVfArK2lWGgnMiUkdLZK-3" value="build" style="ellipse;whiteSpace=wrap;html=1;" parent="1" vertex="1">
          <mxGeometry x="290" y="220" width="120" height="80" as="geometry" />
        </mxCell>
        <mxCell id="vVfArK2lWGgnMiUkdLZK-5" value="load page" style="ellipse;whiteSpace=wrap;html=1;" parent="1" vertex="1">
          <mxGeometry x="480" y="220" width="120" height="80" as="geometry" />
        </mxCell>
        <mxCell id="vVfArK2lWGgnMiUkdLZK-19" style="edgeStyle=orthogonalEdgeStyle;rounded=0;orthogonalLoop=1;jettySize=auto;html=1;" parent="1" source="vVfArK2lWGgnMiUkdLZK-6" edge="1">
          <mxGeometry relative="1" as="geometry">
            <mxPoint x="460" y="520" as="targetPoint" />
          </mxGeometry>
        </mxCell>
        <mxCell id="vVfArK2lWGgnMiUkdLZK-6" value="build" style="ellipse;whiteSpace=wrap;html=1;" parent="1" vertex="1">
          <mxGeometry x="305" y="480" width="120" height="80" as="geometry" />
        </mxCell>
        <mxCell id="vVfArK2lWGgnMiUkdLZK-7" value="load page" style="ellipse;whiteSpace=wrap;html=1;" parent="1" vertex="1">
          <mxGeometry x="480" y="410" width="120" height="80" as="geometry" />
        </mxCell>
        <mxCell id="vVfArK2lWGgnMiUkdLZK-13" style="edgeStyle=orthogonalEdgeStyle;rounded=0;orthogonalLoop=1;jettySize=auto;html=1;exitX=0;exitY=0.5;exitDx=0;exitDy=0;entryX=0;entryY=0.5;entryDx=0;entryDy=0;" parent="1" source="vVfArK2lWGgnMiUkdLZK-8" target="vVfArK2lWGgnMiUkdLZK-7" edge="1">
          <mxGeometry relative="1" as="geometry">
            <Array as="points">
              <mxPoint x="460" y="570" />
              <mxPoint x="460" y="450" />
            </Array>
          </mxGeometry>
        </mxCell>
        <mxCell id="vVfArK2lWGgnMiUkdLZK-8" value="load locales" style="ellipse;whiteSpace=wrap;html=1;" parent="1" vertex="1">
          <mxGeometry x="480" y="530" width="120" height="80" as="geometry" />
        </mxCell>
        <mxCell id="vVfArK2lWGgnMiUkdLZK-10" value="locales" style="ellipse;shape=cloud;whiteSpace=wrap;html=1;fillColor=#f8cecc;strokeColor=#b85450;" parent="1" vertex="1">
          <mxGeometry x="340" y="200" width="60" height="50" as="geometry" />
        </mxCell>
        <mxCell id="vVfArK2lWGgnMiUkdLZK-20" value="no locales" style="ellipse;shape=cloud;whiteSpace=wrap;html=1;fillColor=#d5e8d4;strokeColor=#82b366;" parent="1" vertex="1">
          <mxGeometry x="345" y="460" width="80" height="50" as="geometry" />
        </mxCell>
      </root>
    </mxGraphModel>
  </diagram>
</mxfile>
